<svg width="360" height="99" xmlns="http://www.w3.org/2000/svg">
 <!-- Created with Method Draw - http://github.com/duopixel/Method-Draw/ -->

 <g>
  <title>background</title>
  <rect x="-1" y="-1" width="362" height="101" id="canvas_background" fill="none"/>
 </g>
 <g>
  <title>Layer 1</title>
  <path fill="#7f3f00" stroke-width="null" stroke-opacity="null" d="m53.24729,17.04199c0,0 3.90925,0.72387 4.83772,3.22636c0,0 0.8307,0.97206 0.58638,1.4891c-0.24432,0.51704 -0.63526,0.6825 -0.73298,0.74455c0,0 0.48866,-0.47569 -1.17278,-1.24092c0,0 -0.85516,-0.12409 -1.02618,-0.24818c-0.17103,-0.12409 -2.68762,-0.53773 -3.22515,0.49636c-0.53752,1.03411 -0.65968,2.77137 -0.58639,2.8541c0.07329,0.08272 2.56546,1.65455 2.78535,2.10955c0.21989,0.45499 1.39268,1.38567 1.90577,1.365c0.51308,-0.02068 1.73474,-0.02068 2.05236,-0.37228c0.31762,-0.3516 1.24608,-0.39295 1.46598,0c0.21989,0.39295 0.1466,0.37228 0.1466,0.37228c0,0 0.78185,-0.14477 1.02618,0.37227c0.24432,0.51704 -0.3665,0.74454 -0.4398,0.74454c-0.07329,0 0.46423,-0.78591 -0.2932,-0.62045c0,0 -0.43978,0.01552 -0.43978,-0.12409c0,-0.13961 0.25654,0.72904 0,0.74454c0,0 -0.86127,-0.80658 -1.02619,-0.37227c0,0 -0.54973,0.09307 -0.73299,0.12409c-0.18324,0.03102 -0.1466,0.12409 -0.1466,0.12409c0,0 -0.47644,0.15511 -0.14658,0.62046c0,0 0,0.17062 -0.1466,0.24819c-0.1466,0.07755 0.09162,0.44983 0.73298,0.12409c0,0 0.16492,-0.12409 0.1466,0c-0.01833,0.12409 -0.65969,0.79108 -1.46597,-0.12409c0,0 -0.2932,-0.69802 0.1466,-0.86865c0.43979,-0.17062 -0.1466,-0.51188 -0.73299,-0.24818c0,0 -0.03665,0.49636 0.14659,0.62045c0.18325,0.1241 -0.31152,0.01552 -0.43979,-0.12409c-0.12827,-0.13959 -0.2932,0.29472 -0.2932,0.37228c0,0.07755 -0.16492,0.34125 -0.29319,0.24819c-0.12828,-0.09307 -1.3377,-0.20166 -1.31938,-0.1241c0.01833,0.07756 -0.56806,0.4033 -0.73299,0.24819c-0.16492,-0.15512 -1.08115,-0.9462 -1.17277,-0.86865c-0.09163,0.07756 0.62304,0.9462 1.02618,1.11683c0.40314,0.17062 2.08902,0.2792 2.63875,-0.12409c0,0 0.84294,-0.13961 0.87959,0c0,0 0.95288,0.32574 0.87959,0.49636c-0.07331,0.17063 -0.07331,0.07756 -0.1466,0c-0.0733,-0.07756 -0.67802,-0.35677 -0.73299,-0.24818c-0.05497,0.10858 0,0.12409 0,0.12409c0,0 0.76964,0.18613 0.73299,0.24818c0,0 0.8979,0.31022 0.73298,0.99273c0,0 -0.27486,0.17062 -0.2932,0c-0.01832,-0.17063 0.10995,-0.63597 -0.43978,-0.62046c0,0 -0.09163,0.24819 -0.43979,0.1241c-0.34817,-0.1241 0.20156,-0.38779 -1.61257,-0.24818c0,0 0.07329,0.29471 0.29318,0.37227c0.2199,0.07755 0.5864,0.07755 0.5864,0.37227c0,0 0.23822,0.24818 0,0.49636c0,0 -0.1466,0.07756 -0.1466,0c0,-0.07755 0.1466,-0.44983 -0.58638,-0.62045c-0.733,-0.17063 -0.5864,-0.12409 -0.5864,-0.12409c0,0 0.12828,0.74454 -0.1466,0.74454c-0.27487,0 0.18325,0.46534 0.733,0.24818c0,0 0.05496,-0.18613 0.14658,-0.12409c0.09163,0.06205 -0.4581,0.96171 -1.46597,-0.12409c0,0 -0.32984,-0.57392 0,-0.74454c0,0 0.21989,-0.57392 -0.87959,-0.37228c0,0 -0.4581,0.06204 -0.43978,0c0.01832,-0.06205 -0.0733,0.29472 0,0.37228c0.07329,0.07755 -0.86127,-0.17063 -0.87959,-0.24818l-0.29319,0c0,0 0.17103,0.72387 0.29319,0.74454c0.12216,0.02067 -0.56195,-0.3516 -0.73299,-0.62045c0,0 0,0.51703 0.1466,0.62045c0.1466,0.10342 -0.65969,-0.55841 -0.58639,-0.62045c0,0 0.02443,0.66182 0.29319,0.99272c0.26876,0.33091 -0.58639,-0.31022 -0.73299,-0.49636c0,0 -0.14658,0.08272 0,0.24818c0.1466,0.16546 -0.48865,-0.16546 -0.58638,-0.62045c0,0 -0.41536,-0.28955 -0.58639,-0.37228c0,0 0.02443,0.70318 0.1466,0.74455c0,0 -0.34207,-0.22751 -0.4398,-0.49636c0,0 -0.19545,0.24818 -0.1466,0.37227c0,0 -0.56195,-0.53773 -0.73299,-0.99273c-0.17102,-0.45499 -0.14658,0.12409 -0.14658,0.12409c0,0 -0.34207,-0.04137 -0.5864,-0.86863c0,0 -1.41711,1.26158 -1.90576,1.365c-0.48866,0.1034 0.58638,-0.49637 0.58638,-0.49637c0,0 -0.80628,0.20682 -0.87958,0.37227c0,0 0.0733,-0.2275 0.4398,-0.49636c0.36649,-0.26886 -0.4398,-0.12409 -0.4398,-0.12409c0,0 -0.17103,-0.04138 -0.14659,-1.36501c0,0 -1.09949,0.99274 -1.75917,0.99274c-0.6597,0 0.61082,-0.41365 0.73298,-0.74456c0.12216,-0.3309 -0.26876,-0.22749 -0.4398,-0.12409c-0.17102,0.10342 -1.44153,0.72387 -1.46597,0.86865c-0.02443,0.14476 -0.14659,-0.24818 -0.14659,-0.24818c0,0 -0.2932,0.12409 -0.5864,0.12409c-0.29318,0 0.85515,-0.455 1.02619,-0.74456c0.17104,-0.28954 -1.58813,0.51705 -2.19896,0.86865c0,0 -0.51309,0.14476 -0.58639,0c-0.0733,-0.14477 0.87959,-0.70318 0.87959,-0.74455c0,-0.04137 0.34205,-0.39295 -0.2932,-0.1241c-0.63525,0.26887 -1.46597,0.06206 -2.05236,0.24819c-0.5864,0.18614 -1.22164,0.76522 -2.05237,0.74455c-0.83072,-0.02068 -0.83052,0.86864 -2.34555,0.86864c-0.87959,0 -0.51309,0.28954 -0.87959,0.24818c-0.36649,-0.04137 0.43979,-0.37228 0.43979,-0.37228c0,0 -0.87959,0.24819 -1.02617,0.24819c-0.1466,0 -0.8063,0.02067 0.73297,-0.49637c0,0 -1.12391,0 -0.73297,-0.12409c0.39092,-0.12409 1.36824,-0.37227 1.31937,-0.49636c-0.04888,-0.12409 -1.05061,-0.10342 -0.73299,-0.24818c0.31762,-0.14478 2.05236,-0.68251 1.61258,-0.74456c-0.4398,-0.06204 -1.07506,-0.08272 -0.73299,-0.24818c0.34207,-0.16546 4.54451,-0.5584 5.13091,-0.99272c0.58638,-0.43433 2.10122,-1.69591 2.49214,-1.73727c0.39094,-0.04138 0,-0.3516 -0.29318,-0.2482c-0.2932,0.10342 -0.56196,-0.06204 -0.4398,-0.74454c0.12217,-0.68249 -1.25739,1.49664 -2.05236,0.74454c-0.41536,-0.39294 -0.09774,-0.68249 -0.58639,-0.62045c-0.48865,0.06205 -0.46423,-0.45499 -0.58639,-0.24818c-0.12216,0.20681 -1.14835,1.4891 -1.61257,1.36501c-0.46423,-0.12409 -0.12216,-0.20682 -0.4398,-0.24818c-0.31763,-0.04138 -0.53752,-0.12409 -0.58639,-0.37229c-0.04887,-0.24818 -0.34205,0.16547 -0.43979,-0.24818c-0.09773,-0.41364 -0.17102,-0.93067 -0.58638,-0.49636c-0.41538,0.43432 -0.56198,0.14477 -0.5864,0c-0.02443,-0.14476 -0.90402,0.08272 -0.87958,-0.37227c0.02442,-0.455 -0.85516,0.14477 -0.733,-0.37227c0.12218,-0.51704 -0.74305,-0.07008 -0.58638,-0.49637c0.34206,-0.93068 -1.17278,-0.08272 -1.02618,-0.49636c0.14659,-0.41364 -0.70856,-0.08272 -0.5864,-0.49636c0.12218,-0.41364 -0.81349,-0.26997 -0.73298,-0.62046c0.17102,-0.74455 -0.87958,-0.2275 -0.73299,-0.86864c0.1466,-0.64113 -0.66713,-0.0043 -0.58639,-0.49636c0.12218,-0.74455 -1.04714,-0.47417 -0.73298,-0.99273c0.48866,-0.80659 -0.50247,-0.45986 -0.2932,-0.86863c0.31762,-0.62046 -2.04076,0.06883 -1.46598,-0.99274c0.26878,-0.49636 -1.59621,-0.82684 -0.73298,-1.24091c1.46597,-0.70317 -2.24782,-0.3516 -0.43979,-1.48909c1.68587,-0.66182 1.78917,-0.72415 -0.2932,-0.62045c-0.83072,0.04137 -2.0768,-0.93068 -0.87957,-0.99273c1.19721,-0.06204 3.64049,-0.55841 0.87957,-0.74455c-2.76091,-0.18613 -2.85864,-1.03409 -1.75916,-0.99272c1.09948,0.04136 5.39967,0.04136 4.25132,-0.24818c-1.14835,-0.28955 -6.40373,-0.99718 -4.39792,-1.73727c0.95288,-0.3516 7.66727,1.51784 5.71729,0.24818c-0.31761,-0.20682 -3.4206,-0.95137 -4.54452,-1.98546c-1.1239,-1.0341 -0.90401,-1.17887 -0.29318,-0.99273c0.61082,0.18613 7.69632,2.91614 6.59688,1.98545c-0.19547,-0.16546 -4.25132,-1.79932 -4.83772,-3.22636c-0.58639,-1.42704 -0.02443,-1.05477 0.4398,-0.62046c0.46421,0.43432 7.13137,4.58181 6.01049,3.22637c-0.34207,-0.41364 -3.32287,-2.06818 -3.95813,-3.72273c-0.63527,-1.65455 -0.1466,-1.19954 0.2932,-0.74455c0.43978,0.455 7.23346,6.654 6.15708,4.46728c-0.24432,-0.49637 -2.39443,-2.0475 -2.63875,-3.47455c-0.24432,-1.42705 0.39092,-0.88931 0.73299,-0.37228c0.34207,0.51705 5.15535,6.9491 5.27751,5.83229c0,0 0.02443,0.02067 0.1466,0c0.12216,-0.02069 -0.09774,-0.59978 0.14659,-0.49637c0,0 0.09774,-0.45499 0.29319,-0.37228c0.19547,0.08272 0.39094,0.02069 0.4398,-0.49636c0.04886,-0.51704 1.4904,0.08272 1.90576,2.73c0,0 0.2932,0.26853 0.2932,0.86864c0,0.31023 1.75916,1.82 2.78535,1.73728c1.02619,-0.08272 2.49216,1.73727 2.93195,1.86136c0.43978,0.12409 1.4171,0.86863 2.93194,0.12409c1.51484,-0.74454 3.00526,-0.99272 1.75918,-1.11682c-1.24608,-0.12409 -1.00175,-0.53773 -0.43979,-0.62045c0.56195,-0.08272 3.00524,-0.12409 2.19896,-0.49636c-0.80629,-0.37228 -1.50279,-2.36124 -0.4398,-1.86137c0.4398,0.20681 2.00167,2.04459 1.75917,0.74454c-0.0733,-0.39294 -1.02618,-0.86863 -0.73298,-2.23363c0.29318,-1.36501 0.69969,-0.27905 0.73298,-0.12409c0.04887,0.2275 1.23418,3.05204 1.46598,1.61318c0.07329,-0.455 -0.53752,-1.05478 -0.2932,-2.73001c0.24432,-1.67522 0.58638,0 0.58638,0c0,0 0.69712,1.71555 0.5864,2.60592c-0.04888,0.39295 0.63526,0.24818 0.58639,-0.49637c-0.04888,-0.74454 -0.41536,-2.3784 -0.1466,-2.35773c0.26877,0.02068 1.07404,1.10762 0.87959,1.98546c-0.07331,0.33091 1.05061,0.66182 -0.1466,1.365c-1.1972,0.70317 -2.49216,2.10955 -2.49216,2.10955c0,0 0.28965,0.90891 -1.17277,1.365c-0.92846,0.28955 -0.1466,0.86863 -0.1466,0.86863l0,0.00001z" id="svg_1" stroke="null"/>
  <text fill="#fe9814" stroke-width="0" stroke-opacity="null" x="205.5" y="78.5375" id="svg_2" font-size="24" font-family="Helvetica, Arial, sans-serif" text-anchor="start" xml:space="preserve" transform="matrix(13.814988136291504,0,0,1,-2804.480059951544,0) " stroke="null"/>
  <text fill="#ffffff" stroke="null" stroke-width="0" stroke-opacity="null" x="117.5" y="44.3375" id="svg_14" font-size="24" font-family="'Courier New', Courier, monospace" text-anchor="start" xml:space="preserve"/>
  <text fill="#333333" stroke="null" stroke-width="0" stroke-opacity="null" x="323.5" y="40.3375" id="svg_16" font-size="24" font-family="'Courier New', Courier, monospace" text-anchor="start" xml:space="preserve"/>
  <text fill="#333333" stroke-width="0" stroke-opacity="null" x="169.5" y="75.3375" id="svg_17" font-size="24" font-family="'Courier New', Courier, monospace" text-anchor="start" xml:space="preserve" stroke="null"/>
  <text fill="#ffffff" stroke-width="0" stroke-opacity="null" x="50.940569" y="49.291319" id="svg_18" font-size="24" font-family="'Palatino Linotype', 'Book Antiqua', Palatino, serif" text-anchor="start" xml:space="preserve" transform="matrix(1.2185809508553973,0,0,1.294252872467041,-10.95049971870408,-6.57011491805315) " stroke="null" font-weight="bold" font-style="normal">HT-VISAS</text>
  <path fill="#ff0000" stroke="null" stroke-width="null" stroke-opacity="null" d="m126.0975,69.65224l9.54922,0l2.95078,-9.54918l2.95078,9.54918l9.54922,0l-7.72547,5.90164l2.95094,9.54918l-7.72547,-5.90181l-7.72547,5.90181l2.95094,-9.54918l-7.72547,-5.90164z" id="svg_19"/>
  <path fill="#0000ff" stroke="null" stroke-width="null" stroke-opacity="null" d="m71.0975,69.65224l9.54922,0l2.95078,-9.54918l2.95078,9.54918l9.54922,0l-7.72547,5.90164l2.95094,9.54918l-7.72547,-5.90181l-7.72547,5.90181l2.95094,-9.54918l-7.72547,-5.90164z" id="svg_20"/>
  <path fill="#ffffff" stroke="null" stroke-width="null" stroke-opacity="null" d="m99.0975,69.65224l9.54922,0l2.95078,-9.54918l2.95078,9.54918l9.54922,0l-7.72547,5.90164l2.95094,9.54918l-7.72547,-5.90181l-7.72547,5.90181l2.95094,-9.54918l-7.72547,-5.90164z" id="svg_21"/>
 </g>
</svg>